#!OML:ASF E:\Style3\Style3.ASF
:FULLY-SPECIFIED
:DEGREES
4381
root -0.538196 17.5449 2.62447 27.3765 105.43 15.0989
lowerback 2.81249 -0.802417 -0.389921
upperback -3.52979 -0.873113 3.18917
thorax -5.17849 -0.31954 3.59281
lowerneck -4.26422 11.3302 7.02369
upperneck 16.5116 16.0529 -5.27666
head 6.73083 7.94361 -1.53009
rclavicle 2.29845e-014 -3.49861e-014
rhumerus -0.267152 7.64144 -90.7684
rradius 120.093
rwrist 7.60412
rhand 13.5178 0.475331
rfingers 7.12502
rthumb 38.4547 -25.1987
lclavicle 2.29845e-014 -3.49861e-014
lhumerus -0.0601638 -13.4853 95.2971
lradius 114.641
lwrist 1.08898
lhand 7.22422 44.3595
lfingers 7.12502
lthumb 32.4891 71.4661
rfemur -20.8566 13.1719 15.4394
rtibia 22.9282
rfoot -15.1151 -12.0484
rtoes -23.5331
lfemur -34.2198 -7.03564 -0.296696
ltibia 33.3975
lfoot 5.73207 19.622
ltoes -36.1342
4382
root -0.529818 17.5439 2.61434 26.5185 106.57 14.1116
lowerback 2.85051 -0.757529 -0.410041
upperback -3.63656 -0.805115 3.21898
thorax -5.31629 -0.279721 3.63352
lowerneck -4.38908 11.0353 6.73672
upperneck 16.6401 15.6493 -5.07622
head 6.72685 7.74675 -1.45761
rclavicle -2.27857e-014 -7.95139e-016
rhumerus -0.520871 7.79611 -90.7318
rradius 120.11
rwrist 7.87257
rhand 13.4033 0.582815
rfingers 7.12502
rthumb 38.3466 -25.1213
lclavicle -2.27857e-014 -7.95139e-016
lhumerus -0.0939915 -13.0116 95.3044
lradius 114.607
lwrist 0.632146
lhand 7.044 44.0274
lfingers 7.12502
lthumb 32.3176 71.1692
rfemur -20.6376 12.6256 15.6105
rtibia 22.8435
rfoot -15.0797 -12.6171
rtoes -23.735
lfemur -34.8148 -7.26883 -0.22786
ltibia 33.437
lfoot 5.78686 18.9279
ltoes -36.3953
4383
root -0.52047 17.5424 2.60368 25.8019 107.738 13.2584
lowerback 2.82346 -0.644322 -0.364061
upperback -3.72695 -0.647173 3.18133
thorax -5.40695 -0.200429 3.55781
lowerneck -4.44783 10.6568 6.44623
upperneck 16.6589 15.1184 -4.84444
head 6.66777 7.49302 -1.39376
rclavicle 1.23495e-014 -8.34896e-015
rhumerus -0.840216 7.76648 -90.7467
rradius 120.183
rwrist 8.32005
rhand 13.4576 0.740317
rfingers 7.12502
rthumb 38.3978 -24.9496
lclavicle 1.23495e-014 -8.34896e-015
lhumerus -0.0847411 -12.749 95.3122
lradius 114.547
lwrist 0.306797
lhand 6.85623 43.8518
lfingers 7.12502
lthumb 32.1388 71.0298
rfemur -20.4278 12.099 15.7898
rtibia 22.7503
rfoot -15.0763 -13.1659
rtoes -23.9737
lfemur -35.4207 -7.4348 -0.171392
ltibia 33.4621
lfoot 5.74172 18.2008
ltoes -36.3871
4384
root -0.513113 17.5413 2.59282 25.3133 108.95 12.6446
lowerback 2.93567 -0.558312 -0.170926
upperback -3.84535 -0.517724 3.09254
thorax -5.60605 -0.141546 3.35024
lowerneck -4.5767 10.3226 6.12496
upperneck 16.7244 14.6231 -4.45685
head 6.6266 7.26265 -1.26744
rclavicle -2.86747e-014 1.31198e-014
rhumerus -1.0293 7.82481 -90.9278
rradius 120.104
rwrist 8.85507
rhand 13.6833 0.798792
rfingers 7.12502
rthumb 38.6109 -24.8316
lclavicle -2.86747e-014 1.31198e-014
lhumerus -0.198211 -12.466 95.2043
lradius 114.591
lwrist -0.0165287
lhand 6.66865 43.8548
lfingers 7.12502
lthumb 31.9602 71.0687
rfemur -20.2247 11.5923 16.0263
rtibia 22.6719
rfoot -15.0932 -13.7989
rtoes -24.0095
lfemur -36.0225 -7.66087 -0.04898
ltibia 33.4476
lfoot 5.87333 17.3885
ltoes -36.6696
4385
root -0.503611 17.5388 2.58144 24.6813 110.2 11.8538
lowerback 3.16115 -0.490857 0.0663463
upperback -4.01975 -0.413657 2.89755
thorax -5.92757 -0.0996978 3.01071
lowerneck -4.73486 10.0001 5.98137
upperneck 16.8388 14.13 -4.075
head 6.62355 7.04208 -1.16387
rclavicle 5.59082e-015 -7.15625e-015
rhumerus -1.03743 7.77667 -91.1304
rradius 119.894
rwrist 9.32101
rhand 13.6339 0.657892
rfingers 7.12502
rthumb 38.5642 -24.9856
lclavicle 5.59082e-015 -7.15625e-015
lhumerus -0.32332 -12.252 94.8893
lradius 114.666
lwrist -0.237016
lhand 6.47094 43.9912
lfingers 7.12502
lthumb 31.772 71.2426
rfemur -20.0608 10.9981 16.1931
rtibia 22.653
rfoot -15.1786 -14.381
rtoes -23.9666
lfemur -36.6331 -7.80131 -0.0536193
ltibia 33.3834
lfoot 6.21547 16.2939
ltoes -37.6367
4386
root -0.493598 17.5315 2.56801 24.333 111.539 11.349
lowerback 3.29613 -0.402293 0.296211
upperback -4.15364 -0.277789 2.77965
thorax -6.15488 -0.0415491 2.75045
lowerneck -4.82439 9.64454 5.83885
upperneck 16.8288 13.6004 -3.78381
head 6.57614 6.79971 -1.09795
rclavicle 1.55797e-014 3.91606e-014
rhumerus -1.05223 7.6146 -91.2332
rradius 119.826
rwrist 9.56072
rhand 13.7043 0.640503
rfingers 7.12502
rthumb 38.6306 -24.9843
lclavicle 1.55797e-014 3.91606e-014
lhumerus -0.379687 -12.0182 94.722
lradius 114.707
lwrist -0.576451
lhand 6.53189 44.0049
lfingers 7.12502
lthumb 31.83 71.2448
rfemur -19.8994 10.3749 16.4669
rtibia 22.6487
rfoot -15.3344 -14.9584
rtoes -23.7068
lfemur -37.2753 -7.98911 0.0494738
ltibia 33.2902
lfoot 6.51408 15.2822
ltoes -38.4612
